<svg aria-hidden="true" style="position: absolute; width: 0; height: 0; overflow: hidden;" version="1.1" xmlns="http://www.w3.org/2000/svg" xmlns:xlink="http://www.w3.org/1999/xlink">
<defs>
<symbol id="icon-bird" viewBox="0 0 32 32">
<path d="M1.593 23.778l2.577-0.359c0 0 1.216-0.145 1.738-0.436 0.514-0.287 0.929-0.749 1.266-1.232 0.425-0.61 0.602-1.359 0.906-2.037 0.195-0.434 0.36-0.882 0.589-1.298 0.218-0.397 0.466-0.779 0.744-1.136 0.285-0.365 0.587-0.722 0.942-1.020 0.243-0.204 0.534-0.344 0.802-0.515 0.232-0.148 0.554-0.207 0.698-0.442 0.006-0.010 0.005-0.023 0.003-0.034-0.067-0.398-0.385-0.715-0.502-1.102-0.079-0.26-0.121-0.533-0.13-0.805-0.007-0.228 0.014-0.46 0.066-0.682 0.061-0.263 0.166-0.516 0.287-0.757 0.127-0.253 0.276-0.499 0.458-0.716 0.166-0.199 0.36-0.378 0.572-0.526 0.199-0.139 0.422-0.245 0.647-0.335 0.235-0.094 0.48-0.174 0.73-0.211 0.244-0.036 0.495-0.039 0.739-0.010 0.178 0.021 0.52 0.13 0.52 0.13l0.35 0.102c0 0 0.083 0.003 0.118-0.015 0.209-0.106 0.317-0.345 0.48-0.512 0.107-0.109 0.215-0.216 0.327-0.319 0.104-0.095 0.208-0.189 0.319-0.275 0.108-0.083 0.223-0.158 0.338-0.232 0.109-0.071 0.217-0.143 0.331-0.205 0.067-0.036 0.208-0.095 0.208-0.095s-0.224 0.268-0.318 0.414c-0.116 0.179-0.21 0.37-0.303 0.562-0.082 0.17-0.178 0.338-0.223 0.521-0.038 0.155-0.043 0.319-0.037 0.479 0.007 0.184 0.082 0.546 0.082 0.546v0c0 0 0.395-0.030 0.59-0 0.243 0.037 0.48 0.119 0.704 0.22 0.148 0.067 0.299 0.14 0.416 0.251 0.063 0.059 0.146 0.213 0.146 0.213s-0.414 0.025-0.616 0.067c-0.207 0.043-0.605 0.189-0.605 0.189s0.164 0.634 0.181 0.959c0.013 0.259 0.011 0.527-0.064 0.775-0.034 0.11-0.103 0.206-0.168 0.301-0.077 0.112-0.261 0.313-0.261 0.313l-0.182 0.139c0 0 0.442 0.314 0.628 0.51 0.206 0.216 0.378 0.466 0.531 0.723 0.126 0.212 0.232 0.436 0.315 0.668 0.073 0.206 0.115 0.422 0.156 0.636 0.050 0.259 0.092 0.521 0.111 0.785 0.025 0.337 0.038 0.677 0.008 1.013-0.017 0.194-0.055 0.387-0.109 0.575-0.064 0.223-0.15 0.439-0.253 0.647-0.11 0.224-0.244 0.438-0.388 0.642-0.141 0.199-0.302 0.383-0.463 0.565-0.172 0.194-0.347 0.385-0.538 0.56-0.205 0.189-0.423 0.365-0.65 0.528-0.217 0.156-0.445 0.297-0.678 0.427-0.218 0.122-0.442 0.232-0.671 0.331-0.301 0.13-0.613 0.231-0.921 0.342-0.232 0.083-0.509 0.105-0.698 0.243-0.028 0.020-0.056 0.047-0.064 0.080-0.080 0.343-0.040 0.804 0.229 1.030 0.189 0.159 0.494 0.055 0.74 0.032 0.111-0.011 0.219-0.049 0.327-0.077 0.162-0.042 0.323-0.186 0.482-0.136 0.068 0.022 0.12 0.097 0.135 0.166 0.008 0.035-0.001 0.079-0.026 0.104-0.078 0.080-0.324 0.089-0.324 0.089l-0.619 0.089-0.609-0.012 0.448 0.539 0.316 0.388c0 0 0.12 0.108 0.104 0.173-0.012 0.049-0.081 0.067-0.13 0.078-0.075 0.017-0.167 0.026-0.229-0.019-0.074-0.053-0.059-0.174-0.109-0.25-0.081-0.124-0.302-0.326-0.302-0.326l-0.288-0.264c0 0-0.139-0.15-0.232-0.161-0.246-0.029-0.694 0.269-0.694 0.269l-0.293 0.102c0 0-0.191 0.077-0.257 0.151-0.048 0.054-0.093 0.127-0.087 0.2 0.007 0.074 0.060 0.146 0.123 0.186 0.064 0.040 0.224 0.032 0.224 0.032l0.263-0.034 0.251-0.052 0.242-0.054c0 0 0.287-0.144 0.431-0.108 0.063 0.016 0.138 0.067 0.144 0.132 0.005 0.049-0.046 0.093-0.088 0.118-0.129 0.077-0.444 0.066-0.444 0.066l-0.409 0.075-0.369 0.033-0.284 0.047c0 0 0.67 0.341 0.838 0.653 0.058 0.108 0.123 0.289 0.028 0.366-0.052 0.042-0.137-0.018-0.193-0.055-0.124-0.085-0.273-0.361-0.273-0.361l-0.238-0.249c0 0-0.236-0.18-0.376-0.208-0.142-0.029-0.293 0.008-0.432 0.047-0.163 0.046-0.46 0.217-0.46 0.217l-0.643 0.274c0 0-0.127 0.036-0.179 0.007s-0.109-0.101-0.088-0.158c0.060-0.164 0.49-0.186 0.49-0.186l0.41-0.169 0.434-0.224c0 0 0.067-0.025 0.087-0.052 0.044-0.062 0.047-0.147 0.048-0.224 0.005-0.312-0.17-0.922-0.17-0.922l-0.258-0.85c0 0-0.010-0.060-0.065-0.111-0.229-0.21-0.4-0.244-0.624-0.301-0.465-0.12-0.96-0.038-1.439-0.077-0.285-0.023-0.569-0.058-0.853-0.092-0.383-0.046-0.764-0.114-1.148-0.154-0.366-0.038-0.732-0.073-1.1-0.083-0.413-0.011-0.826 0.013-1.238 0.030-0.399 0.017-1.197 0.070-1.197 0.070l-1.2 0.054z"></path>
<path d="M11.567 24.283c-0.212 0.423 0.429 1.353 0.429 1.353s0.81-0.174 1.001-0.501c0.162-0.278-0.132-0.955-0.132-0.955s-0.073-0.247-0.179-0.284c-0.372-0.131-0.941 0.035-1.118 0.388z"></path>
<path d="M0.585 23.284c1.225 0.165 2.48-0.101 3.693-0.339 0.514-0.101 1.058-0.183 1.504-0.458 0.413-0.255 0.72-0.661 1.004-1.054 0.225-0.312 0.545-1.017 0.545-1.017v0c0 0-1.884 0.993-2.868 1.396-0.708 0.29-1.409 0.503-2.174 0.732-0.335 0.101-0.837 0.257-1.254 0.388s-0.751 0.238-0.751 0.238c0 0 0.196 0.099 0.302 0.114z"></path>
<path d="M21.971 9.525c-0.25 0.001-0.49 0.14-0.623 0.351-0.149 0.225-0.157 0.532-0.022 0.765 0.109 0.208 0.329 0.349 0.559 0.384 0.142 0.010 0.289-0.002 0.418-0.067 0.279-0.128 0.466-0.443 0.425-0.75-0.014-0.202-0.115-0.396-0.277-0.52-0.136-0.106-0.308-0.165-0.48-0.162z"></path>
<path d="M22.43 6.706c-0.125 0.010-0.225 0.108-0.27 0.22-0.134 0.29-0.136 0.618-0.121 0.931 0.033 0.478 0.14 0.947 0.272 1.406 0.042 0.141 0.086 0.282 0.136 0.42 0.083 0.073 0.156 0.156 0.208 0.253 0.025 0.022 0.028-0.023 0.020-0.039-0.080-0.513-0.167-1.028-0.151-1.549 0.005-0.174-0.004-0.362 0.088-0.518 0.021-0.036 0.066-0.082 0.109-0.049 0.11 0.085 0.169 0.218 0.281 0.302 0.079 0.067 0.188 0.076 0.271 0.136 0.165 0.098 0.28 0.261 0.349 0.436 0.016 0.033 0.050-0.005 0.054-0.026 0.061-0.171 0.055-0.362 0.005-0.535-0.082-0.271-0.29-0.491-0.534-0.626-0.113-0.064-0.206-0.16-0.267-0.273-0.099-0.161-0.168-0.357-0.338-0.459-0.034-0.019-0.072-0.034-0.111-0.031z"></path>
<path d="M18.182 6.873c-0.173 0.001-0.339 0.097-0.43 0.242-0.103 0.156-0.108 0.368-0.015 0.529 0.076 0.144 0.227 0.241 0.386 0.265 0.098 0.007 0.2-0.002 0.289-0.047 0.193-0.089 0.323-0.306 0.294-0.519-0.010-0.14-0.080-0.274-0.192-0.359-0.094-0.073-0.213-0.114-0.332-0.112z"></path>
<path d="M18.5 4.924c-0.086 0.007-0.155 0.075-0.187 0.152-0.093 0.2-0.094 0.427-0.084 0.643 0.023 0.33 0.097 0.655 0.188 0.972 0.029 0.098 0.059 0.195 0.094 0.29 0.057 0.050 0.108 0.108 0.144 0.175 0.018 0.015 0.019-0.016 0.014-0.027-0.055-0.354-0.115-0.711-0.104-1.071 0.004-0.12-0.003-0.251 0.061-0.358 0.015-0.025 0.046-0.057 0.076-0.034 0.076 0.058 0.117 0.151 0.194 0.209 0.054 0.046 0.13 0.053 0.187 0.094 0.114 0.068 0.193 0.18 0.242 0.302 0.011 0.023 0.034-0.004 0.038-0.018 0.042-0.118 0.038-0.25 0.003-0.37-0.057-0.187-0.201-0.339-0.369-0.433-0.078-0.044-0.142-0.111-0.185-0.189-0.068-0.111-0.116-0.247-0.234-0.317-0.023-0.013-0.049-0.024-0.077-0.022z"></path>
<path d="M25.105 5.451c-0.174 0.001-0.342 0.094-0.434 0.234-0.104 0.151-0.109 0.355-0.016 0.512 0.076 0.139 0.229 0.233 0.39 0.256 0.099 0.006 0.202-0.002 0.292-0.045 0.195-0.086 0.326-0.296 0.296-0.502-0.010-0.135-0.080-0.265-0.193-0.347-0.095-0.071-0.215-0.11-0.335-0.109z"></path>
<path d="M25.426 3.567c-0.087 0.007-0.157 0.072-0.189 0.147-0.094 0.194-0.095 0.413-0.085 0.622 0.023 0.319 0.098 0.633 0.19 0.94 0.029 0.094 0.060 0.188 0.095 0.281 0.058 0.049 0.109 0.104 0.145 0.169 0.018 0.015 0.019-0.016 0.014-0.026-0.056-0.343-0.116-0.687-0.105-1.035 0.004-0.116-0.003-0.242 0.061-0.346 0.015-0.024 0.046-0.055 0.076-0.033 0.077 0.057 0.118 0.146 0.196 0.202 0.055 0.045 0.131 0.051 0.189 0.091 0.115 0.065 0.195 0.174 0.244 0.292 0.011 0.022 0.035-0.003 0.038-0.018 0.042-0.114 0.039-0.242 0.003-0.358-0.058-0.181-0.202-0.328-0.372-0.419-0.079-0.043-0.144-0.107-0.187-0.182-0.069-0.108-0.117-0.239-0.236-0.307-0.023-0.013-0.050-0.023-0.078-0.021z"></path>
<path d="M27.105 23.353c-0.261-0.003-0.521 0.024-0.778 0.067-0.56 0.094-1.104 0.293-1.58 0.605-0.176 0.117-0.342 0.251-0.489 0.402-0.075 0.074-0.152 0.15-0.201 0.246-0.096 0.181-0.128 0.391-0.12 0.595 0.003 0.162 0.040 0.324 0.111 0.47 0.056 0.118 0.155 0.205 0.245 0.297 0.301 0.296 0.666 0.522 1.053 0.687 0.508 0.215 1.058 0.327 1.609 0.349 0.223 0.005 0.446 0.004 0.668-0.020 0.657-0.064 1.308-0.26 1.867-0.615 0.25-0.159 0.478-0.351 0.673-0.574 0.135-0.171 0.186-0.393 0.194-0.608 0.006-0.232-0.038-0.476-0.176-0.668-0.070-0.091-0.155-0.168-0.237-0.249-0.473-0.435-1.073-0.716-1.696-0.861-0.293-0.067-0.591-0.109-0.891-0.122-0.084-0.002-0.169-0.002-0.253-0.002z"></path>
<path d="M26.538 22.176c-0.004 0.398-0.001 0.797-0.002 1.195 0.025 0.020 0.069-0.005 0.102-0.002 0.321-0.023 0.645-0.029 0.967-0.006 0.023-0.034 0.003-0.093 0.010-0.136 0-0.341 0-0.681 0-1.022-0.030-0.021-0.081-0.003-0.119-0.009-0.317-0.005-0.634-0.019-0.95-0.023l-0.007 0.003z"></path>
<path d="M27.051 9.759c-0.668 0.048-1.246 0.478-1.664 0.976-0.353 0.498-0.325 1.137-0.329 1.718-0.009 1.91-0.021 3.82 0.013 5.73 0.048 0.458 0.080 0.945 0.323 1.349 0.313 0.408 0.773 0.69 1.252 0.865 0.447 0.165 0.935 0.023 1.332-0.206 0.353-0.199 0.746-0.409 0.941-0.781 0.309-0.809 0.247-1.694 0.265-2.543-0.003-1.7 0.006-3.399-0.023-5.099-0.008-0.454-0.164-0.917-0.503-1.23-0.422-0.423-0.991-0.778-1.606-0.778z"></path>
<path d="M24.68 15.153c-0.153 0.005-0.332 0.029-0.432 0.16-0.078 0.097-0.060 0.227-0.064 0.343-0.006 1.157-0.008 2.313-0.003 3.47 0.012 0.47 0.050 0.942 0.158 1.4 0.062 0.259 0.158 0.517 0.329 0.725 0.557 0.718 1.436 1.178 2.344 1.221 0.338 0.005 0.677-0.046 0.998-0.156 0.605-0.205 1.152-0.593 1.528-1.111 0.208-0.296 0.29-0.657 0.353-1.008 0.060-0.367 0.098-0.737 0.109-1.109 0.017-1.078 0.019-2.156 0.014-3.234-0.004-0.131 0.003-0.262-0.011-0.392-0.027-0.136-0.144-0.236-0.274-0.268-0.158-0.038-0.323-0.030-0.484-0.014-0.036 0.008-0.012 0.060-0.021 0.085-0.002 0.122-0.011 0.247-0.006 0.368 0.142 0.006 0.303 0.023 0.403 0.136 0.054 0.068 0.092 0.154 0.081 0.243 0.003 1.086 0.007 2.173-0.019 3.259-0.026 0.416-0.068 0.835-0.181 1.238-0.064 0.236-0.174 0.46-0.339 0.642-0.191 0.218-0.408 0.414-0.658 0.563-0.543 0.338-1.208 0.497-1.841 0.373-0.7-0.132-1.35-0.533-1.767-1.113-0.196-0.277-0.261-0.62-0.313-0.949-0.059-0.404-0.076-0.813-0.073-1.221-0.003-0.919-0.006-1.838 0.002-2.756-0.005-0.113 0.014-0.239 0.105-0.317 0.103-0.091 0.245-0.102 0.376-0.108 0.020-0.036 0.003-0.092 0.010-0.136 0.001-0.101 0.002-0.202 0.003-0.303-0.047-0.024-0.111-0.018-0.165-0.027-0.054-0.004-0.108-0.006-0.162-0.005z"></path>
</symbol>
<symbol id="icon-bird2" viewBox="0 0 32 32">
<path d="M3.201 23.863l2.577-0.359c0 0 1.216-0.145 1.738-0.436 0.514-0.287 0.929-0.749 1.266-1.232 0.425-0.61 0.602-1.359 0.906-2.037 0.195-0.434 0.36-0.882 0.589-1.298 0.218-0.397 0.466-0.779 0.744-1.136 0.285-0.365 0.587-0.722 0.942-1.020 0.243-0.204 0.534-0.344 0.802-0.515 0.232-0.148 0.554-0.207 0.698-0.442 0.006-0.010 0.005-0.023 0.003-0.034-0.067-0.398-0.385-0.715-0.502-1.102-0.079-0.26-0.121-0.533-0.13-0.805-0.007-0.228 0.014-0.46 0.066-0.682 0.061-0.263 0.166-0.516 0.287-0.757 0.127-0.253 0.276-0.499 0.458-0.716 0.166-0.199 0.36-0.378 0.572-0.526 0.199-0.139 0.422-0.245 0.647-0.335 0.235-0.094 0.48-0.174 0.73-0.211 0.244-0.036 0.495-0.039 0.739-0.010 0.178 0.021 0.52 0.13 0.52 0.13l0.35 0.102c0 0 0.083 0.003 0.118-0.015 0.209-0.106 0.317-0.345 0.48-0.512 0.107-0.109 0.215-0.216 0.327-0.319 0.104-0.095 0.208-0.189 0.319-0.275 0.108-0.083 0.223-0.158 0.338-0.232 0.109-0.071 0.217-0.143 0.331-0.205 0.067-0.036 0.208-0.095 0.208-0.095s-0.224 0.268-0.318 0.414c-0.116 0.179-0.21 0.37-0.303 0.562-0.082 0.17-0.178 0.338-0.223 0.521-0.038 0.155-0.043 0.319-0.037 0.479 0.007 0.184 0.082 0.546 0.082 0.546v0c0 0 0.395-0.030 0.59-0 0.243 0.037 0.48 0.119 0.704 0.22 0.148 0.067 0.299 0.14 0.416 0.251 0.063 0.059 0.146 0.213 0.146 0.213s-0.414 0.025-0.616 0.067c-0.207 0.043-0.605 0.189-0.605 0.189s0.164 0.634 0.181 0.959c0.013 0.259 0.011 0.527-0.064 0.775-0.034 0.11-0.103 0.206-0.168 0.301-0.077 0.112-0.261 0.313-0.261 0.313l-0.182 0.139c0 0 0.442 0.314 0.628 0.51 0.206 0.216 0.378 0.466 0.531 0.723 0.126 0.212 0.232 0.436 0.315 0.668 0.073 0.206 0.115 0.422 0.156 0.636 0.050 0.259 0.092 0.521 0.111 0.785 0.025 0.337 0.038 0.677 0.008 1.013-0.017 0.194-0.055 0.387-0.109 0.575-0.064 0.223-0.15 0.439-0.253 0.647-0.11 0.224-0.244 0.438-0.388 0.642-0.141 0.199-0.302 0.383-0.463 0.565-0.172 0.194-0.347 0.385-0.538 0.56-0.205 0.189-0.423 0.365-0.65 0.528-0.217 0.156-0.445 0.297-0.678 0.427-0.218 0.122-0.442 0.232-0.671 0.331-0.301 0.13-0.613 0.231-0.921 0.342-0.232 0.083-0.509 0.105-0.698 0.243-0.028 0.020-0.056 0.047-0.064 0.080-0.080 0.343-0.040 0.804 0.229 1.030 0.189 0.159 0.494 0.055 0.74 0.032 0.111-0.011 0.219-0.049 0.327-0.077 0.162-0.042 0.323-0.186 0.482-0.136 0.068 0.022 0.12 0.097 0.135 0.166 0.008 0.035-0.001 0.079-0.026 0.104-0.078 0.080-0.324 0.089-0.324 0.089l-0.619 0.089-0.609-0.012 0.448 0.539 0.316 0.388c0 0 0.12 0.108 0.104 0.173-0.012 0.049-0.081 0.067-0.13 0.078-0.075 0.017-0.167 0.026-0.229-0.019-0.074-0.053-0.059-0.174-0.109-0.25-0.081-0.124-0.302-0.326-0.302-0.326l-0.288-0.264c0 0-0.139-0.15-0.232-0.161-0.246-0.029-0.694 0.269-0.694 0.269l-0.293 0.102c0 0-0.191 0.077-0.257 0.151-0.048 0.054-0.093 0.127-0.087 0.2 0.007 0.074 0.060 0.146 0.123 0.186 0.064 0.040 0.224 0.032 0.224 0.032l0.263-0.034 0.251-0.052 0.242-0.054c0 0 0.287-0.144 0.431-0.108 0.063 0.016 0.138 0.067 0.144 0.132 0.005 0.049-0.046 0.093-0.088 0.118-0.129 0.077-0.444 0.066-0.444 0.066l-0.409 0.075-0.369 0.033-0.284 0.047c0 0 0.67 0.341 0.838 0.653 0.058 0.108 0.123 0.289 0.028 0.366-0.052 0.042-0.137-0.018-0.193-0.055-0.124-0.085-0.273-0.361-0.273-0.361l-0.238-0.249c0 0-0.236-0.18-0.376-0.208-0.142-0.029-0.293 0.008-0.432 0.047-0.163 0.046-0.46 0.217-0.46 0.217l-0.643 0.274c0 0-0.127 0.036-0.179 0.007s-0.109-0.101-0.088-0.158c0.060-0.164 0.49-0.186 0.49-0.186l0.41-0.169 0.434-0.224c0 0 0.067-0.025 0.087-0.052 0.044-0.062 0.047-0.147 0.048-0.224 0.005-0.312-0.17-0.922-0.17-0.922l-0.258-0.85c0 0-0.010-0.060-0.065-0.111-0.229-0.21-0.4-0.244-0.624-0.301-0.465-0.12-0.96-0.038-1.439-0.077-0.285-0.023-0.569-0.058-0.853-0.092-0.383-0.046-0.764-0.114-1.148-0.154-0.366-0.038-0.732-0.073-1.1-0.083-0.413-0.011-0.826 0.013-1.238 0.030-0.399 0.017-1.197 0.070-1.197 0.070l-1.2 0.054z"></path>
<path d="M13.176 24.367c-0.212 0.423 0.429 1.353 0.429 1.353s0.81-0.174 1.001-0.501c0.162-0.278-0.132-0.955-0.132-0.955s-0.073-0.247-0.179-0.284c-0.372-0.131-0.941 0.035-1.118 0.388z"></path>
<path d="M2.193 23.368c1.225 0.165 2.48-0.101 3.693-0.339 0.514-0.101 1.058-0.183 1.504-0.458 0.413-0.255 0.72-0.661 1.004-1.054 0.225-0.312 0.545-1.017 0.545-1.017v0c0 0-1.884 0.993-2.868 1.396-0.708 0.29-1.409 0.503-2.174 0.732-0.335 0.101-0.837 0.257-1.254 0.388s-0.751 0.238-0.751 0.238c0 0 0.196 0.099 0.302 0.114z"></path>
<path d="M27.613 23.268c-0.261-0.003-0.521 0.024-0.778 0.067-0.56 0.094-1.104 0.293-1.58 0.605-0.176 0.117-0.342 0.251-0.489 0.402-0.075 0.074-0.152 0.15-0.201 0.246-0.096 0.181-0.128 0.391-0.12 0.595 0.003 0.162 0.040 0.324 0.111 0.47 0.056 0.118 0.155 0.205 0.245 0.297 0.301 0.296 0.666 0.522 1.053 0.687 0.508 0.215 1.058 0.327 1.609 0.349 0.223 0.005 0.446 0.004 0.668-0.020 0.657-0.064 1.308-0.26 1.867-0.615 0.25-0.159 0.478-0.351 0.673-0.574 0.135-0.171 0.186-0.393 0.194-0.608 0.006-0.232-0.038-0.476-0.176-0.668-0.070-0.091-0.155-0.168-0.237-0.249-0.473-0.435-1.073-0.716-1.696-0.861-0.293-0.067-0.591-0.109-0.891-0.122-0.084-0.002-0.169-0.002-0.253-0.002z"></path>
<path d="M27.046 22.091c-0.004 0.398-0.001 0.797-0.002 1.195 0.025 0.020 0.069-0.005 0.102-0.002 0.321-0.023 0.645-0.029 0.967-0.006 0.023-0.034 0.003-0.093 0.010-0.136 0-0.341 0-0.681 0-1.022-0.030-0.021-0.081-0.003-0.119-0.009-0.317-0.005-0.634-0.019-0.95-0.023l-0.007 0.003z"></path>
<path d="M25.668 18.722c-0.056-0-0.027 0.076-0.036 0.111-0.002 0.512-0.002 1.026 0.066 1.535 0.050 0.361 0.107 0.749 0.351 1.036 0.236 0.273 0.549 0.466 0.864 0.636 0.048 0.021 0.1 0.060 0.153 0.038 0.332-0.002 0.667 0.008 0.997 0.024 0.030-0 0.058 0.006 0.071 0.035 0.052 0.028 0.109-0.025 0.159-0.039 0.304-0.148 0.606-0.308 0.878-0.51 0.204-0.15 0.348-0.372 0.415-0.615 0.133-0.463 0.169-0.948 0.197-1.427 0.010-0.256 0.020-0.56 0.009-0.814-0.107-0.029-0.229-0.010-0.342-0.018-1.261-0.014-2.522 0.017-3.782 0.008z"></path>
<path d="M27.722 11.523c-0.359-0.002-0.698 0.154-0.998 0.339-0.343 0.224-0.672 0.504-0.851 0.881-0.148 0.321-0.167 0.682-0.194 1.029-0.022 0.555-0.015 1.111-0.023 1.666-0.004 0.747-0.013 1.494-0.010 2.241 0.030 0.038 0.094 0.011 0.137 0.022 1.25 0.029 2.538-0.008 3.789 0.014 0.089-0.003 0.159 0.002 0.245-0.012 0.011-0.373-0.009-0.681-0.004-1.055 0.003-0.973 0.020-1.945 0.005-2.918-0.016-0.297-0.046-0.599-0.146-0.882-0.185-0.456-0.585-0.78-0.992-1.033-0.288-0.172-0.615-0.305-0.956-0.293z"></path>
<path d="M26.642 5.778c-0.343 0.002-0.672 0.192-0.854 0.481-0.204 0.309-0.215 0.729-0.030 1.050 0.15 0.285 0.451 0.478 0.767 0.526 0.195 0.013 0.397-0.003 0.574-0.093 0.383-0.176 0.64-0.607 0.583-1.029-0.019-0.278-0.158-0.544-0.38-0.713-0.186-0.146-0.422-0.226-0.658-0.223z"></path>
<path d="M27.272 1.91c-0.171 0.014-0.308 0.148-0.371 0.302-0.184 0.397-0.186 0.848-0.166 1.277 0.045 0.655 0.192 1.299 0.373 1.929 0.057 0.193 0.118 0.387 0.186 0.576 0.114 0.1 0.214 0.214 0.286 0.347 0.035 0.030 0.038-0.032 0.027-0.054-0.11-0.703-0.229-1.41-0.207-2.125 0.007-0.239-0.005-0.497 0.12-0.71 0.029-0.050 0.091-0.113 0.15-0.067 0.151 0.116 0.232 0.299 0.385 0.415 0.108 0.092 0.257 0.105 0.372 0.187 0.226 0.134 0.384 0.358 0.48 0.599 0.022 0.045 0.068-0.007 0.075-0.036 0.083-0.234 0.076-0.497 0.007-0.734-0.113-0.371-0.398-0.673-0.732-0.859-0.155-0.088-0.283-0.219-0.367-0.374-0.136-0.221-0.231-0.49-0.464-0.629-0.046-0.027-0.098-0.047-0.152-0.043z"></path>
<path d="M22.656 9.044c-0.343 0.002-0.672 0.192-0.854 0.481-0.204 0.309-0.215 0.729-0.030 1.050 0.15 0.286 0.451 0.478 0.767 0.526 0.195 0.013 0.397-0.003 0.574-0.093 0.383-0.176 0.64-0.607 0.583-1.030-0.019-0.278-0.158-0.544-0.38-0.713-0.186-0.146-0.422-0.226-0.658-0.223z"></path>
<path d="M23.286 5.176c-0.171 0.014-0.308 0.148-0.371 0.302-0.184 0.397-0.186 0.848-0.166 1.277 0.045 0.655 0.192 1.299 0.373 1.93 0.057 0.193 0.118 0.387 0.186 0.576 0.114 0.1 0.214 0.214 0.286 0.347 0.035 0.030 0.038-0.032 0.027-0.054-0.11-0.703-0.229-1.41-0.207-2.125 0.007-0.239-0.005-0.497 0.12-0.71 0.029-0.050 0.091-0.113 0.15-0.067 0.151 0.116 0.232 0.299 0.385 0.415 0.108 0.092 0.257 0.105 0.372 0.187 0.226 0.134 0.384 0.358 0.48 0.599 0.022 0.045 0.068-0.007 0.075-0.036 0.083-0.234 0.076-0.497 0.007-0.734-0.113-0.371-0.398-0.673-0.732-0.859-0.155-0.088-0.283-0.219-0.367-0.374-0.136-0.221-0.231-0.49-0.464-0.629-0.046-0.027-0.098-0.047-0.152-0.043z"></path>
</symbol>
</defs>
</svg>
